Coordinates
version=1
nRows=16
nColumns=40
inDegrees=yes

Units are S.I. units (second, meters, Newtons, ...)
Angles are in degrees.

endheader
time	pelvis_tilt	pelvis_list	pelvis_rotation	pelvis_tx	pelvis_ty	pelvis_tz	hip_flexion_r	hip_adduction_r	hip_rotation_r	knee_angle_r	knee_angle_r_beta	ankle_angle_r	subtalar_angle_r	mtp_angle_r	hip_flexion_l	hip_adduction_l	hip_rotation_l	knee_angle_l	knee_angle_l_beta	ankle_angle_l	subtalar_angle_l	mtp_angle_l	lumbar_extension	lumbar_bending	lumbar_rotation	arm_flex_r	arm_add_r	arm_rot_r	elbow_flex_r	pro_sup_r	wrist_flex_r	wrist_dev_r	arm_flex_l	arm_add_l	arm_rot_l	elbow_flex_l	pro_sup_l	wrist_flex_l	wrist_dev_l
     37.61800000	     -1.86335234	     -5.08220263	      0.16450167	      1.07097414	      0.93508262	      0.37694761	     28.80476385	     -6.21282306	     -5.68185312	     55.40267128	     55.40267128	      0.76344297	    -11.92679116	     -1.25141057	     11.66868449	     -6.46317504	     -8.07005063	     21.91251723	     21.91251723	     13.85391231	     -9.56515656	     -1.50971000	    -10.48481660	      4.46362833	      1.82335537	      4.95255051	    -14.95156937	     -5.08435789	     27.06289784	     46.85323338	      0.00000000	      0.00000000	     13.80321068	    -15.11415484	     -5.94181904	     50.85657649	     46.11448507	      0.00000000	      0.00000000
     37.63100000	     -1.94883874	     -5.02364354	     -0.24299919	      1.07075674	      0.93573566	      0.37718226	     28.98945367	     -6.11739736	     -5.63025635	     52.52206368	     52.52206368	      0.76067668	    -11.88845749	     -0.90920720	     10.86174215	     -6.36321382	     -8.46358399	     21.04123164	     21.04123164	     13.89714433	     -9.43462505	     -1.44730058	    -10.43447434	      4.42869333	      1.77934849	      4.09327885	    -15.32701540	     -5.30246888	     26.58512724	     46.87905220	      0.00000000	      0.00000000	     14.44571935	    -15.43103711	     -6.28729758	     51.59031507	     46.16558046	      0.00000000	      0.00000000
     37.64400000	     -2.22377933	     -4.73989203	     -0.65635407	      1.07031185	      0.93557223	      0.37747462	     29.39970704	     -6.26205697	     -5.51302640	     49.60109107	     49.60109107	      0.86865896	    -11.66676642	     -0.54099513	     10.60552938	     -6.07369620	     -8.87616532	     20.80530104	     20.80530104	     14.06040102	     -9.48834197	     -1.52261628	    -10.16551637	      4.11742241	      1.48010775	      3.42352306	    -15.62951292	     -5.39782017	     26.33182920	     46.89058813	      0.00000000	      0.00000000	     15.06801783	    -15.98301159	     -6.52532168	     52.04486526	     46.19921804	      0.00000000	      0.00000000
     37.65700000	     -2.08568676	     -4.81501938	     -1.08208958	      1.07054447	      0.93666538	      0.37804929	     28.86454292	     -5.96429511	     -5.69580138	     45.87962025	     45.87962025	      0.73401356	    -11.39399082	     -0.18969232	      9.20046975	     -6.08364868	     -9.38791847	     19.31023024	     19.31023024	     13.97653053	     -9.04623816	     -1.51797529	    -10.41443909	      4.25562321	      1.92322034	      2.24312543	    -16.04174842	     -5.74736746	     25.98976134	     46.91744795	      0.00000000	      0.00000000	     15.50600736	    -15.96063654	     -7.17585985	     53.86932079	     46.28687721	      0.00000000	      0.00000000
     37.67000000	     -2.20492164	     -4.62048500	     -1.50552940	      1.07056223	      0.93667486	      0.37861600	     28.62543325	     -5.95749005	     -5.82875734	     42.15256205	     42.15256205	      0.22929737	    -11.03876123	     -1.29351566	      8.38972398	     -5.84180642	     -9.90046125	     18.34059145	     18.34059145	     13.49282837	     -9.00074911	     -2.93086869	    -10.42107094	      4.03073072	      1.48818253	      1.34915431	    -16.03656852	     -7.50136666	     26.84903948	     46.97675017	      0.00000000	      0.00000000	     14.63580747	    -16.21985083	     -9.56209436	     57.99403215	     46.55953178	      0.00000000	      0.00000000
     37.68300000	     -2.32904517	     -4.50894883	     -1.86566134	      1.07061722	      0.93663734	      0.37932592	     28.23932184	     -5.84497663	     -6.13941751	     38.28443900	     38.28443900	      0.15827552	    -10.16091792	     -0.83801849	      7.71230466	     -5.70568623	    -10.31353160	     17.63757890	     17.63757890	     13.56792293	     -8.81407536	     -3.01840374	    -10.29179244	      3.96903550	      1.49979005	      0.56344384	    -16.26755963	     -7.69814427	     26.57133410	     46.99173307	      0.00000000	      0.00000000	     15.15702559	    -16.50582179	     -9.93282851	     58.79399282	     46.60903569	      0.00000000	      0.00000000
     37.69600000	     -2.37504076	     -4.27362984	     -2.24601603	      1.07086475	      0.93644152	      0.38013302	     27.67028449	     -5.85366659	     -6.54433085	     34.36868139	     34.36868139	     -0.00855838	     -8.80503043	     -0.95504717	      6.83867006	     -5.43744023	    -10.92368385	     16.73388826	     16.73388826	     13.46295457	     -8.37956274	     -3.72411631	    -10.32083962	      3.72939785	      1.57261802	     -0.42460919	    -16.35576185	     -8.48765487	     26.89176268	     47.00915633	      0.00000000	      0.00000000	     15.24789321	    -16.60551497	    -11.06763056	     61.04573891	     46.74487329	      0.00000000	      0.00000000
     37.70900000	     -2.49239833	     -4.19372532	     -2.52631981	      1.07111113	      0.93596672	      0.38110448	     27.02379547	     -5.62321818	     -7.03664497	     30.40058990	     30.40058990	     -0.14360957	     -7.38703414	     -0.39944343	      6.25391917	     -5.36167758	    -11.26660241	     16.21655919	     16.21655919	     13.59794074	     -8.18077585	     -4.03101231	    -10.19573758	      3.71782918	      1.53553277	     -1.15512402	    -16.45330057	     -8.74771081	     26.87229418	     47.01610652	      0.00000000	      0.00000000	     15.60378089	    -16.90035472	    -11.52234409	     62.02206347	     46.80184697	      0.00000000	      0.00000000
     37.72200000	     -2.53481656	     -3.96861769	     -2.80467465	      1.07158816	      0.93531693	      0.38215713	     26.29913712	     -5.60331715	     -7.80992270	     26.70167445	     26.70167445	     -0.20466879	     -5.17269769	      0.03780804	      5.47503291	     -5.14459087	    -11.87755342	     15.49847279	     15.49847279	     13.51188575	     -7.62108790	     -5.04061148	    -10.19096475	      3.51203437	      1.49828776	     -2.10274028	    -16.45595858	     -9.55356416	     27.52578123	     47.01712781	      0.00000000	      0.00000000	     15.51879440	    -17.00956289	    -12.67047691	     64.28202998	     46.93554014	      0.00000000	      0.00000000
     37.73500000	     -2.71014057	     -3.83279603	     -3.02526706	      1.07203968	      0.93431633	      0.38350501	     25.66902546	     -5.31263477	     -8.24339065	     23.18953805	     23.18953805	     -0.42215532	     -3.59066684	      0.83900384	      5.06060512	     -5.05041160	    -12.15876334	     15.19277457	     15.19277457	     13.70748693	     -7.49398428	     -5.37206332	     -9.92129288	      3.42695073	      1.46302712	     -2.74065017	    -16.30707032	     -9.69253268	     27.49069059	     47.01732095	      0.00000000	      0.00000000	     15.90571176	    -17.28860413	    -12.99324454	     65.02639573	     46.97732111	      0.00000000	      0.00000000
     37.74800000	     -2.59241908	     -3.72955162	     -3.20420941	      1.07291120	      0.93357605	      0.38490931	     24.69610089	     -5.08978050	     -9.10380785	     20.07651698	     20.07651698	     -0.45943850	     -1.26528265	      1.73499285	      4.21008980	     -4.98443380	    -12.58529438	     14.71829658	     14.71829658	     13.88717084	     -7.01740607	     -5.99383330	    -10.02312746	      3.38227513	      1.54752788	     -3.50516516	    -16.34400345	     -9.97940686	     27.62821971	     47.01705511	      0.00000000	      0.00000000	     16.19137429	    -17.41842516	    -13.50645731	     66.27089241	     47.04173519	      0.00000000	      0.00000000
     37.76100000	     -2.57744659	     -3.50204121	     -3.36339531	      1.07389159	      0.93239792	      0.38643515	     24.10825582	     -5.06664441	    -10.09888326	     17.89236386	     17.89236386	      0.16910238	      1.40212540	      3.82625360	      3.49767279	     -4.82296289	    -13.17064465	     14.25794720	     14.25794720	     13.69970165	     -6.49207887	     -7.68906702	     -9.99976696	      3.17968023	      1.32544504	     -4.27480717	    -16.10103682	    -10.93552646	     28.74778938	     46.99149690	      0.00000000	      0.00000000	     15.86016526	    -17.53210750	    -14.82750017	     68.54041000	     47.19321778	      0.00000000	      0.00000000
     37.77400000	     -2.53318422	     -3.39920164	     -3.51310370	      1.07506918	      0.93134577	      0.38828129	     23.39936431	     -4.78017087	    -10.68471923	     15.89756909	     15.89756909	      0.10714009	      3.01302670	      4.54390128	      2.77877278	     -4.77267649	    -13.41357470	     13.91149193	     13.91149193	     13.96457313	     -6.25674587	     -8.04647821	     -9.94175104	      3.09611817	      1.43813190	     -4.82940868	    -15.94412046	    -11.02780680	     28.62627697	     46.98815525	      0.00000000	      0.00000000	     16.19346183	    -17.64027955	    -15.07426410	     69.14763520	     47.22843745	      0.00000000	      0.00000000
     37.78700000	     -2.49295566	     -3.19171234	     -3.62539748	      1.07644488	      0.93017010	      0.39013202	     22.85743318	     -4.67369969	    -11.25503434	     14.60153854	     14.60153854	      0.20863686	      4.44517054	      4.99318412	      2.09473097	     -4.62351967	    -13.72416230	     13.62701956	     13.62701956	     14.21488755	     -5.93184214	     -8.44802292	     -9.79483980	      2.97432474	      1.53382026	     -5.28021815	    -15.70241731	    -11.10613587	     28.62614473	     46.98034866	      0.00000000	      0.00000000	     16.43614973	    -17.74408906	    -15.35662983	     69.78081525	     47.26534387	      0.00000000	      0.00000000
     37.80000000	     -2.39984805	     -3.02927611	     -3.73970803	      1.07804313	      0.92911275	      0.39217357	     22.35087616	     -4.57017830	    -11.80372076	     13.87522312	     13.87522312	      0.40364641	      5.69638067	      5.14187669	      1.32913526	     -4.52780051	    -14.03387684	     13.32972437	     13.32972437	     14.47689852	     -5.56074229	     -8.83489548	     -9.77171868	      2.86561440	      1.61867963	     -5.69185639	    -15.45152319	    -11.18066386	     28.68354349	     46.96899938	      0.00000000	      0.00000000	     16.57594937	    -17.82429733	    -15.70697386	     70.42332190	     47.30701793	      0.00000000	      0.00000000
     37.81300000	     -2.28585201	     -2.87213643	     -3.85357686	      1.07976309	      0.92808420	      0.39437367	     21.97032213	     -4.50272928	    -12.15122888	     13.73480538	     13.73480538	      0.63524046	      6.47539233	      4.83997309	      0.55258428	     -4.44112748	    -14.28498167	     13.06823177	     13.06823177	     14.75696691	     -5.23834993	     -9.09464928	     -9.70948538	      2.77381064	      1.67294317	     -5.99571639	    -15.18063544	    -11.22185512	     28.78042113	     46.95287982	      0.00000000	      0.00000000	     16.61330510	    -17.87070287	    -16.11068259	     70.98142379	     47.35092954	      0.00000000	      0.00000000
